<?xml version="1.0" encoding="utf-8"?>
<!-- Generator: Adobe Illustrator 26.0.3, SVG Export Plug-In . SVG Version: 6.00 Build 0)  -->
<svg version="1.1" id="Layer_1" xmlns="http://www.w3.org/2000/svg" xmlns:xlink="http://www.w3.org/1999/xlink" x="0px" y="0px"
	 viewBox="0 0 500 500" style="enable-background:new 0 0 500 500;" xml:space="preserve">
<style type="text/css">
	.st0{fill:#304FFE;}
	.st1{fill:#4928F4;}
	.st2{fill:#6200EA;}
	.st3{fill:#673AB7;}
	.st4{fill:#8E24AA;}
	.st5{fill:#C2185B;}
	.st6{fill:#D81B60;}
	.st7{fill:#F50057;}
	.st8{fill:#FF1744;}
	.st9{fill:#FF5722;}
	.st10{fill:#FF6F00;}
	.st11{fill:#FF9800;}
	.st12{fill:#FFC107;}
	.st13{fill:#FFD54F;}
	.st14{fill:#FFE082;}
	.st15{fill:#FFECB3;}
	.st16{fill:none;stroke:#FFFFFF;stroke-width:30;stroke-linecap:round;stroke-linejoin:round;stroke-miterlimit:10;}
	.st17{fill:#FFFFFF;}
</style>
<path class="st0" d="M495.43,103.75c-5.54,3.61-13.45,6.94-16.77,10.68c-1.25,1.25-1.94,2.64-1.66,4.02v14.29l-4.16,14.01
	l-4.16,13.87l-4.57,15.26l-9.43,31.21l-9.15,30.79l-6.93,23.16c0,3.61-0.14,7.21-0.42,10.68c-0.97,13.32-3.74,26.08-8.18,38
	c-2.63,7.35-5.82,14.43-9.7,21.08c-1.39,2.64-3.05,5.27-4.71,7.77c-5.54,8.74-12.2,16.78-19.54,23.86
	c-5.68,5.69-11.92,10.96-18.71,15.4c0,0,0,0-0.14,0c-1.11,0.97-2.36,1.8-3.74,2.5c-4.3,2.91-8.87,5.41-13.58,7.63
	c-3.19,1.66-6.38,3.05-9.7,4.3c-0.69,0.42-1.52,0.69-2.22,0.97c-7.9,3.75-17.05,6.24-26.2,7.49c-0.55,0.14-0.97,0.14-1.52,0.28
	c-5.54,0.97-10.95,1.8-16.49,2.22c-2.49,0.28-5.13,0.42-7.62,0.42l-9.84-0.55l-47.4-2.5c0-0.14-0.14,0-0.14,0l-23.84-1.25
	c-1.8,0-3.74,0-5.54-0.14c-7.48-0.28-14.69-1.11-21.9-2.64c-0.14,0-0.14,0-0.14,0c-13.17-2.5-25.78-6.94-37.56-12.9
	c-6.51-3.33-12.89-7.07-18.85-11.37c-2.49-1.8-4.85-3.75-7.21-5.83c-6.65-5.55-12.61-11.51-18.16-17.62
	c-0.83-0.83-1.52-1.66-2.22-2.5c-0.83-0.83-1.66-1.8-2.36-2.64c-5.27-6.66-9.7-13.45-13.31-20.67c-3.33-6.38-5.96-13.18-8.04-20.67
	c-0.83-2.64-1.52-5.13-2.08-7.91c-0.14-0.14-0.28-0.42-0.28-0.69c-1.39-5.69-2.63-11.65-3.33-17.62c-0.83-4.58-1.25-9.15-1.25-13.87
	c-0.28-1.8-0.28-3.74-0.28-5.55l26.47-40.92l25.92-39.95l11.78-18.17l10.67-16.37l3.6-5.69v-14.29c0.28-3.19,0.42-6.52,0.28-9.57
	c-0.14-9.71-2.08-19.14-5.27-28.16c-3.05-9.57-7.35-18.59-11.78-26.91c-5.27-9.57-10.81-18.17-15.39-25.94
	c-6.79-11.37-11.5-20.67-10.26-27.19C118.41,1.25,128.94,0,139.62,0h221.77c57.94,0,107.84,36.06,128.49,86.83
	C492.1,92.24,494.04,97.92,495.43,103.75z"/>
<path class="st1" d="M500,138.7v3.75l-19.13,11.1l-12.2,7.07l-13.45,7.77l-26.89,15.67L402,199.32l-26.89,15.53l-10.67,6.24
	c0,6.66-1.66,12.76-4.71,18.31c-4.3,8.04-11.5,14.7-20.65,20.39c-9.29,5.69-20.65,10.26-33.4,13.59c0,0,0-0.14-0.14,0
	c-49.34,12.76-116.71,6.94-149.42-17.48c-9.15-6.8-15.52-15.12-18.3-24.69c-0.83-3.19-1.25-6.66-1.25-10.13v-99.73
	c0.14-2.08-1.25-4.16-3.74-6.24c-7.48-5.96-25.09-11.65-44.77-17.34c-15.39-4.3-31.88-8.6-45.74-12.76
	c-10.95-3.33-20.24-6.66-25.78-9.85c2.49-4.85,5.41-9.71,8.46-14.29c19.41-28.43,49.07-49.38,83.44-57.28
	C118.41,1.25,128.94,0,139.62,0h149.7c74.43,13.04,143.04,43.41,200.57,86.83c2.22,5.41,4.16,11.1,5.54,16.92
	c2.49,9.15,4.02,18.59,4.44,28.43C500,134.27,500,136.48,500,138.7z"/>
<path class="st2" d="M500,138.7v61.17l-3.05,9.43l-10.4,32.32l-10.81,33.29l-5.68,17.75l-5.27,16.51l-5.13,15.67l-4.99,15.53
	l-2.63,8.18l-3.47,10.82c0,10.54-0.28,19.83-0.97,27.74c-0.14,0.83-0.28,1.66-0.28,2.5c-0.83,7.35-1.94,13.59-3.74,18.86
	c-0.14,0.83-0.42,1.66-0.69,2.36c-3.6,9.99-9.01,16.37-17.05,20.53c-1.94,1.11-4.16,1.94-6.51,2.77c-7.35,2.5-16.63,3.74-28,4.44
	c-8.32,0.55-17.88,0.69-28.69,0.69h-9.56l-16.49-0.69l-2.91-0.14l-30.08-1.25l-30.49-1.25l-100.49-4.16l-26.06-1.11h-3.6
	c-10.81-0.14-20.1-0.83-28.14-1.94c-11.64-1.8-20.65-4.85-27.44-9.43c-9.7-6.24-15.39-15.4-18.71-28.16
	c-0.83-3.05-1.52-6.24-1.94-9.71c-1.39-8.04-2.08-17.34-2.49-27.74c0-2.08,0-4.16-0.14-6.38c-0.14-0.14,0-0.14,0-0.14v-8.04
	c-0.14-4.02-0.14-8.18-0.14-12.48l0.69-22.33l0.42-15.95l0.55-18.59v-2.64l0.97-34.12l0.97-34.12l0.97-32.04l0.83-31.49l0.28-8.32
	c0-4.3-14.55-6.8-30.77-8.88c-12.89-1.66-27.03-3.19-35.48-5.13c0.69-3.19,1.39-6.38,2.22-9.43c2.49-9.99,6.24-19.42,10.95-28.43
	c2.49-4.85,5.41-9.71,8.46-14.29c29.94-13.18,61.13-23.44,93.7-30.1c28.55-5.96,58.35-9.15,89.13-9.15
	c102.02,0,196.27,34.54,270.84,92.79c7.21,5.55,14.28,11.51,21.21,17.75C500,134.27,500,136.48,500,138.7z"/>
<path class="st3" d="M500,171.58v62.97l-7.62,14.7l-14.55,28.43l-7.76,14.98l-7.07,13.73l-3.05,5.96c0,4.3,0,8.46-0.28,12.48
	c0,5.96-0.28,11.65-0.69,16.92c-0.55,6.24-1.39,11.93-2.22,17.2c-2.08,10.96-4.99,20.39-9.15,28.16c-0.55,0.97-1.11,1.94-1.66,2.77
	c-1.52,2.5-3.33,4.85-5.27,7.07c-2.49,3.05-5.27,5.69-8.46,7.91c-4.71,3.61-10.26,6.52-16.63,8.74c-7.9,2.91-17.05,4.85-27.86,5.96
	c-7.07,0.69-14.83,1.11-23.29,1.11l-5.82,0.28l-28.83,1.66h-0.14l-30.63,1.8l-31.19,1.8l-42.97,2.5l-52.26,3.05l-7.62,0.42
	c-7.07,0-13.72-0.42-20.1-1.25c-0.69-0.14-1.25-0.28-1.94-0.28c-9.43-1.53-18.02-4.02-25.78-7.49c-9.43-4.16-17.6-9.71-24.53-16.37
	c-6.1-5.96-11.37-12.76-15.66-20.39c-0.97-1.8-1.94-3.47-2.77-5.41c-4.16-8.18-7.48-17.34-9.98-27.32
	c-0.42-1.66-0.83-3.47-1.11-5.27c-0.83-3.19-1.52-6.52-1.94-9.99c-1.52-8.88-2.36-18.31-2.77-28.16v-0.14
	c-0.14-4.02-0.28-7.91-0.28-12.07l-6.79-16.23l-0.97-2.5l-0.83-2.08l-10.4-24.83l-1.66-4.02l-9.98-24l-11.09-26.77c0,0,0,0-0.14,0
	L5.03,170.61l-4.02-9.85V138.7c0-8.74,0.83-17.34,2.36-25.66c0.69-3.19,1.39-6.38,2.22-9.43c11.78-6.8,24.12-13.04,36.73-18.59
	c28.83-12.9,59.74-22.47,91.76-28.3c23.84-4.3,48.65-6.66,73.74-6.66c101.32,0,193.22,36.76,265.02,96.68
	c2.77,2.22,5.41,4.44,8.04,6.8C487.39,159.23,493.76,165.2,500,171.58z"/>
<path class="st4" d="M500,212.91v71.29l-7.9,16.51l-14.97,31.21l-0.14,0.42c0,5.96-0.28,11.37-0.69,16.23
	c-1.39,15.95-5.27,26.08-11.64,32.32c-4.57,4.72-10.26,7.35-17.33,8.74c-0.42,0.14-0.97,0.14-1.39,0.28
	c-2.22,0.42-4.57,0.69-7.07,0.69c-8.59,0.83-18.71,0.28-30.36-0.55c-1.25,0-2.63-0.14-4.02-0.28c-8.46-0.55-17.46-1.11-27.44-1.53
	c-5.41-0.14-11.09-0.28-16.91-0.28h-0.28l-14,1.11h-0.14l-31.46,2.22l-35.9,2.77l-5.27,0.42l-42,3.05l-21.76,1.66l-21.48,1.53
	c-3.74,0-7.35,0-10.95-0.14c0,0-0.14-0.14-0.14,0c-15.66-0.28-29.66-1.25-42.14-3.61c-11.5-1.94-21.62-4.99-30.22-9.57
	c-8.87-4.3-16.22-10.4-22.18-18.17c-5.68-7.63-9.84-17.2-12.47-28.71c0-0.14,0-0.14,0-0.14c-1.94-9.29-3.05-20.11-3.05-32.32
	l-2.08-3.74l-12.34-22.05l-1.8-3.05l-0.97-1.94l-12.89-22.89l-6.38-11.51l-8.04-14.29L8.35,203.76l-7.35-13.04v-51.04
	c12.2-8.04,24.81-15.12,37.84-21.5c15.8-8.04,32.16-14.84,49.21-20.39c18.57-6.1,37.98-10.96,57.8-14.15
	c20.1-3.33,40.75-4.99,61.96-4.99c94.25,0,180.75,33.71,247.42,89.74c3.05,2.36,5.96,4.99,8.87,7.49
	c11.64,10.4,22.73,21.64,32.85,33.43C498.06,210.55,499.17,211.66,500,212.91z"/>
<path class="st5" d="M500,259.51V359.8c-3.33-1.94-7.9-4.3-13.58-6.8c-3.05-1.53-6.51-3.05-10.12-4.44
	c-5.27-2.36-10.95-4.58-17.33-6.8c-1.39-0.55-2.77-0.97-4.3-1.39c-2.49-0.97-5.13-1.8-7.76-2.64c-8.18-2.5-17.19-4.85-26.61-6.94
	c-3.6-0.69-7.35-1.39-11.09-1.94c-12.06-2.08-24.95-3.33-38.39-3.47c-1.11-0.14-2.36-0.14-3.47-0.14l-35.62,0.28l-48.51,0.28h-0.14
	l-103.82,0.83c-32.99,0-53.23,7.91-65.42,11.1c0,0-0.14,0-0.14,0.14c-12.89,3.33-16.91,1.25-18.02-21.36
	c-0.28-6.24-0.42-14.29-0.42-24.13l-7.76-5.96l-13.58-10.26l-8.32-6.38l-1.66-1.25l-23.01-17.48l-3.47-2.64l-7.21-5.55l-13.31-9.99
	L1.01,220.68v-47.16c1.39-1.11,2.63-2.08,4.02-2.91c20.1-13.87,41.58-25.66,64.31-35.23c20.24-8.6,41.58-15.4,63.48-20.25
	c5.96-1.25,12.06-2.5,18.3-3.33c18.44-3.19,37.42-4.72,56.69-4.72c83.3,0,159.82,28.99,220.53,76.98
	c9.15,7.21,18.02,14.84,26.34,23.02c11.37,10.82,22.04,22.33,31.88,34.54c1.94,2.5,3.88,4.99,5.82,7.63
	C495.01,252.58,497.51,256.05,500,259.51z"/>
<path class="st6" d="M500,315.13v45.49c0,9.02-0.83,17.89-2.49,26.49c-2.49,12.76-6.79,24.97-12.61,36.34
	c-3.05,0.69-6.51,0.69-10.4,0.14c-8.73-1.53-18.99-6.1-30.08-12.07c-0.55-0.14-1.11-0.42-1.52-0.69c-3.47-1.8-7.07-3.74-10.67-5.96
	c-7.35-4.02-15.11-8.46-22.87-12.62c-1.66-0.83-3.33-1.66-4.85-2.5c-8.87-4.58-18.02-8.74-27.17-11.93c0,0,0,0-0.14,0
	c-1.94-0.69-4.02-1.39-6.1-1.94c-7.9-2.22-15.94-3.61-23.7-3.61l-15.25-4.44l-67.5-19.56c0,0,0,0-0.14,0l-41.44-12.07h-0.14
	l-18.02-5.27c-52.12,0-84.14,22.19-99.66,13.73c-6.1-3.19-9.7-11.23-10.95-27.05c-0.42-4.44-0.55-9.43-0.55-15.26l-16.22-7.91
	l-0.69-0.28h-0.14l-11.64-5.83l-12.75-6.1l-0.97-0.42l-2.36-1.25L21.8,267.42L1.01,257.3v-47.58c2.36-2.08,4.85-4.02,7.35-5.96
	c2.63-2.08,5.27-4.02,7.9-6.1c0.14,0,0.14,0,0.14,0c16.36-11.79,33.68-22.19,52.12-30.79c21.48-10.26,44.35-18.17,68.06-23.3
	c3.47-0.83,7.07-1.66,10.67-2.22c19.68-3.75,39.92-5.69,60.57-5.69c73.05,0,140.13,23.72,194.19,63.67
	c15.66,11.65,30.22,24.55,43.52,38.56c10.95,11.51,21.07,24,30.22,37.03c0.69,0.97,1.39,1.94,2.08,2.77
	c5.13,7.49,9.84,15.12,14.28,23.02C495.01,305.43,497.51,310.28,500,315.13z"/>
<path class="st7" d="M497.51,387.12c-2.49,12.76-6.79,24.97-12.61,36.34c-2.63,5.13-5.54,9.99-8.73,14.7
	c-1.94,2.91-4.02,5.69-6.1,8.32c-4.99-1.94-12.34-4.72-21.35-7.77c0,0,0,0,0-0.14c-6.79-2.36-14.55-4.85-22.87-7.21
	c-2.36-0.69-4.71-1.39-7.21-2.08c-9.84-2.64-20.1-4.99-30.08-6.38c-8.32-1.39-16.49-2.22-24.12-2.22l-6.38-1.8h-0.14l-33.54-9.71
	l-20.65-5.96l-23.01-6.66h-0.14l-7.48-2.08l-90.51-26.08l-26.06-7.49l-19.41-4.58l-31.6-7.49l-3.88-0.97c0,0,0,0-0.14,0l-31.74-7.35
	c0-0.14,0-0.14,0-0.14l-5.68-1.25l-2.91-0.69l-23.15-5.41l-2.63-0.69L15.7,316.11L1.01,303.76v-56.59
	c5.13-4.99,10.4-9.71,15.94-14.29c1.66-1.53,3.47-2.91,5.27-4.3c1.66-1.39,3.47-2.77,5.27-4.16c12.61-9.57,25.92-18.17,40.06-25.52
	c18.02-9.71,37.15-17.48,57.25-23.02c3.88-1.25,7.76-2.36,11.78-3.19c22.73-5.69,46.57-8.6,71.25-8.6
	c61.96,0,119.62,18.73,167.3,50.77c23.7,15.95,45.05,35.09,63.07,56.87c9.15,10.96,17.46,22.47,24.81,34.68
	c0.69,0.97,1.25,1.8,1.8,2.77c4.44,7.35,8.59,14.98,12.34,22.75c3.47,6.94,6.51,13.87,9.29,21.08
	C490.85,364.1,494.46,375.47,497.51,387.12z"/>
<path class="st8" d="M476.16,438.17c-1.94,2.91-4.02,5.69-6.1,8.32c-6.1,7.63-12.75,14.56-20.24,20.67
	c-6.51,5.41-13.45,10.26-20.79,14.43c-2.77-0.69-5.54-1.53-8.46-2.64c-9.15-3.19-18.71-8.46-27.58-14.01
	c-13.31-8.46-24.81-17.62-29.94-21.78c-1.94-1.66-2.91-2.5-2.91-2.5l-23.56-2.08l-2.91-0.28l-30.49-2.64l-31.6-2.77l-46.71-4.16
	l-74.02-6.52l-0.28-0.14l-26.06-12.62l-26.34-12.76l-21.21-10.26l-4.57-2.22l-5.68-2.77l-19.68-9.57l-26.2-12.62l-8.18-4.02
	l-11.64-3.61v-62c6.51-7.77,13.45-15.12,20.79-22.19c4.71-4.44,9.7-8.88,14.83-13.04c0.83-0.69,1.66-1.39,2.49-1.94
	c0.55-0.69,1.25-1.11,1.8-1.39c8.18-6.66,16.77-12.62,25.64-18.03c10.26-6.52,21.07-12.34,32.3-17.2
	c12.06-5.41,24.67-9.99,37.7-13.45c22.59-6.38,46.57-9.71,71.25-9.71c56.55,0,108.81,17.2,151.92,46.74
	c27.58,18.86,51.42,42.72,70.27,70.32c6.24,8.88,11.78,18.31,16.91,28.02c1.8,3.61,3.6,7.21,5.13,10.82
	c1.66,3.47,3.19,6.94,4.71,10.4c2.91,7.21,5.54,14.43,7.9,21.92c4.44,13.87,7.76,28.02,9.84,42.72
	C475.19,428.46,475.74,433.31,476.16,438.17z"/>
<path class="st9" d="M449.96,463.55c0,1.11,0,2.36-0.14,3.61c-6.51,5.41-13.45,10.26-20.79,14.43c-3.05,1.66-6.1,3.33-9.29,4.72
	c-3.19,1.53-6.38,2.91-9.7,4.16c-4.71-2.5-11.09-5.55-17.88-8.46c-9.56-4.3-19.96-8.18-28-9.43c-1.94-0.42-3.74-0.55-5.41-0.55
	l-22.73-2.91h-0.28l-28.28-3.74l-28.55-3.75l-13.31-1.66l-104.79-13.59c-6.79,0-14-0.42-21.48-1.39
	c-9.15-0.83-18.71-2.22-28.28-4.16c-9.43-1.66-18.99-3.88-28.14-6.24c-9.56-2.22-18.99-4.85-27.72-7.35
	c-10.12-3.05-19.54-5.96-27.44-8.6c-6.51-2.08-12.06-4.02-16.36-5.55c-2.49-5.96-4.57-12.21-6.1-18.59
	c-2.91-10.82-4.3-22.19-4.3-33.84v-23.16c4.44-7.35,9.29-14.56,14.69-21.36c9.84-13.04,21.07-24.97,33.27-35.51
	c0.42-0.55,0.97-0.97,1.39-1.25l0.14-0.14c4.3-3.88,8.73-7.35,13.45-10.68c0.55-0.55,1.11-0.97,1.66-1.39
	c2.22-1.66,4.57-3.33,7.07-4.85c19.82-13.45,41.72-24,65.15-31.07c22.18-6.66,45.6-10.13,70-10.13c48.37,0,93.56,14.29,131.26,38.7
	c27.86,17.89,51.84,41.47,70.14,69.07c2.22,3.19,4.3,6.38,6.38,9.71c9.56,16.23,17.46,33.71,23.29,52.01
	c0.69,2.08,1.25,4.16,1.8,6.38c1.11,3.74,2.08,7.63,2.91,11.51c0.28,0.97,0.55,1.94,0.83,3.05c1.94,8.74,3.33,17.89,4.3,27.05
	c0,0.14,0,0.14,0,0.14C449.55,446.9,449.96,455.23,449.96,463.55z"/>
<path class="st10" d="M421.41,463.55c0,4.85-0.28,10.13-0.83,15.4c-0.28,2.5-0.55,4.99-0.83,7.35c-3.19,1.53-6.38,2.91-9.7,4.16
	c-6.24,2.36-12.61,4.3-19.13,5.69c-4.44,0.97-9.01,1.8-13.58,2.22h-0.14c-4.3-2.64-9.29-5.83-14.42-9.43
	c-9.29-6.52-18.99-13.87-26.75-19.83c-0.14-0.14-0.14-0.14-0.28-0.28c-8.18-6.24-14-10.96-14-10.96l-14.69,0.55l-28.28,0.97
	l-13.17,0.55l-52.95,1.94l-44.77,1.66c-2.91,0.14-6.38,0.14-10.67,0h-0.14c-5.82-0.14-12.75-0.55-20.38-1.25
	c-8.87-0.69-18.57-1.53-28.41-2.5c-9.56-1.11-19.27-2.22-28.55-3.33c-10.26-1.11-19.96-2.36-28.28-3.47
	c-6.51-0.83-12.2-1.53-16.77-2.08c-3.88-4.44-7.35-9.02-10.67-14.01c-4.99-7.49-9.29-15.4-12.61-23.86
	c-2.49-5.96-4.57-12.21-6.1-18.59c4.02-12.34,9.29-24,15.52-35.23c4.99-9.15,10.81-17.89,17.19-26.21
	c6.24-8.18,13.03-15.81,20.38-22.75v-0.14c2.08-2.08,4.16-4.02,6.24-5.83c3.88-3.61,7.9-6.94,12.06-10.13h0.14
	c0.14-0.28,0.28-0.28,0.42-0.42c3.33-2.64,6.79-4.99,10.26-7.35c20.51-14.01,43.66-24.41,68.61-30.51
	c16.49-4.02,33.82-6.24,51.7-6.24c35.21,0,68.47,8.46,97.72,23.72h0.14c25.09,12.9,47.27,30.65,65.15,52.01
	c9.84,11.37,18.3,23.86,25.23,37.03c4.85,8.88,9.01,18.17,12.47,27.6c0.28,0.83,0.55,1.53,0.83,2.22
	c2.36,6.94,4.44,14.15,6.24,21.36c1.25,5.13,2.22,10.4,3.05,15.67c0.28,1.66,0.55,3.19,0.69,4.85
	C420.72,443.71,421.41,453.56,421.41,463.55z"/>
<path class="st11" d="M392.99,463.55v1.39c0,4.72-0.42,10.68-0.83,17.06c-0.42,4.72-0.83,9.57-1.25,14.15
	c-4.44,0.97-9.01,1.8-13.58,2.22h-0.14c-5.27,0.69-10.4,0.97-15.8,0.97h-24.26l-5.27-1.53l-27.31-8.32l-27.72-8.32l-64.18-19.28
	l-27.72-8.32c0,0-11.5,4.58-27.72,9.99h-0.14c-6.24,2.08-13.03,4.3-20.24,6.52c-9.01,2.64-18.57,5.27-28,7.35
	c-9.7,2.22-19.27,3.88-27.86,4.58c-2.63,0.28-5.27,0.42-7.62,0.42c-7.76-4.3-15.25-9.43-22.04-15.12
	c-5.96-4.99-11.5-10.4-16.63-16.37c-3.88-4.44-7.35-9.02-10.67-14.01c0.97-6.24,2.08-12.34,3.74-18.31
	c4.16-16.51,10.67-32.32,19.27-46.74c4.71-8.18,9.98-16.09,16.08-23.44c0.14-0.42,0.55-0.83,0.97-1.11c-0.14-0.14,0-0.14,0-0.14
	c1.8-2.36,3.74-4.58,5.68-6.66c0-0.14,0-0.14,0-0.14c5.68-6.1,11.5-11.93,17.88-17.34c2.22-1.8,4.3-3.61,6.65-5.41
	c0.42-0.42,0.83-0.69,1.39-1.11c31.19-23.86,70.14-38.28,112.13-38.28c47.68,0,91.07,17.89,123.92,47.3
	c15.8,14.29,29.25,31.35,39.37,50.35c0.83,1.39,1.66,2.91,2.36,4.44c1.25,2.5,2.49,5.13,3.6,7.91c4.57,9.99,8.18,20.53,10.67,31.35
	c0.28,1.11,0.55,2.22,0.83,3.33c1.11,5.13,2.08,10.4,2.77,15.67C392.44,446.76,392.99,455.09,392.99,463.55z"/>
<path class="st12" d="M364.44,463.55c0,2.77-0.14,5.83-0.28,9.02c-0.28,5.13-0.69,10.68-1.39,16.37c-0.28,3.47-0.83,6.94-1.39,10.4
	h-75.96l-14.69-2.36l-57.38-9.15l-8.18-1.25l-18.71-3.05c-8.18,0-25.92,3.61-44.63,7.07c-9.84,1.8-19.82,3.75-28.83,4.99
	c-1.11,0.14-2.22,0.28-3.19,0.42h-0.14c-9.7-2.08-19.13-5.27-28-9.43c-2.77-1.25-5.54-2.64-8.32-4.16
	c-7.76-4.3-15.25-9.43-22.04-15.12c-0.14-1.66-0.28-3.05-0.28-3.75c0-3.61,0.14-7.07,0.42-10.54c0.55-8.88,1.8-17.48,3.74-25.8
	c3.05-12.62,7.48-24.83,13.45-36.06c1.11-2.36,2.36-4.72,3.74-6.94c0.55-1.11,1.25-2.08,1.8-3.19c2.49-4.02,5.27-7.91,8.04-11.79
	c5.82-7.63,12.34-14.84,19.27-21.36c0.14,0,0.14,0,0.14,0c0.55-0.55,1.11-1.11,1.66-1.53c0.69-0.55,1.25-1.25,1.94-1.66
	c2.77-2.5,5.54-4.72,8.46-6.8c0-0.14,0.14-0.14,0.14-0.14c26.2-19.56,58.63-31.07,93.98-31.07c27.44,0,52.95,6.94,75.26,19.14h0.14
	c19.13,10.54,35.76,24.83,48.93,42.03c5.13,6.66,9.7,13.73,13.58,21.22h0.14c0.69,1.39,1.39,2.77,2.08,4.16
	c4.16,8.18,7.48,16.78,9.98,25.66h0.14c0.14,0.69,0.42,1.39,0.55,2.08c1.66,5.96,3.05,12.07,4.02,18.31
	c0.14,1.25,0.28,2.64,0.42,3.88C364.02,449.82,364.44,456.61,364.44,463.55z"/>
<path class="st13" d="M336.03,462.02c0,2.22,0,4.58-0.28,6.8v0.14c0,0.14,0,0.14,0,0.14c-0.28,9.99-1.66,19.83-3.88,28.71
	c0,0.55-0.14,0.97-0.42,1.53h-64.73l-53.36-11.51l-7.07-1.53l-1.11,0.28l-59.19,12.21l-2.63,0.55h-3.74c-8.87,0-17.6-0.83-26.06-2.5
	c-1.25-0.28-2.49-0.55-3.74-0.83h-0.14c-9.7-2.08-19.13-5.27-28-9.43c-0.28-1.53-0.55-3.05-0.69-4.58
	c-0.97-5.96-1.39-12.21-1.39-18.45c0-2.36,0-4.72,0.14-7.07c0.42-7.49,1.52-14.84,3.19-21.92c1.11-5.27,2.63-10.4,4.44-15.26
	c1.52-4.3,3.33-8.46,5.27-12.48c1.66-3.47,3.6-6.8,5.54-10.13c1.94-3.19,4.02-6.24,6.24-9.29c5.54-7.63,12.06-14.7,19.27-20.94
	c4.16-3.61,8.73-7.07,13.45-10.13c20.24-13.32,44.49-21.08,70.69-21.08c5.13,0,10.12,0.28,14.97,0.97h0.28
	c14.83,1.66,28.69,5.83,41.44,12.07c0.14,0,0.14,0,0.14,0c20.1,9.85,37.15,24.69,49.62,43c2.08,3.05,4.16,6.38,5.96,9.71
	c1.52,2.64,2.91,5.41,4.16,8.18c1.94,4.3,3.74,8.88,5.27,13.45h0.14c1.52,5.13,2.91,10.26,3.88,15.67v0.14
	C335.19,446.07,336.03,453.98,336.03,462.02z"/>
<path class="st14" d="M307.47,464.93v0.42c0,8.18-0.97,16.23-2.91,24.13c-0.69,3.33-1.66,6.66-2.91,9.85h-62.1l-31.74-8.74
	l-31.74,8.74h-36.45c-8.87,0-17.6-0.83-26.06-2.5c-0.28-0.42-0.42-0.83-0.55-1.25c-1.94-5.96-3.47-11.93-4.16-18.17
	c-0.55-4.02-0.83-8.18-0.83-12.48c0-1.66,0-3.47,0.28-5.13c0.14-6.52,1.11-12.9,2.77-19c0.83-4.16,2.08-8.18,3.74-12.07
	c0.55-1.94,1.39-3.74,2.36-5.55c2.08-4.72,4.57-9.29,7.35-13.73c3.05-4.44,6.38-8.6,10.12-12.48c4.44-4.99,9.43-9.57,15.11-13.32
	c9.7-7.07,20.79-12.34,32.85-15.26c8.04-2.22,16.49-3.33,25.23-3.33c27.72,0,52.53,11.1,70.55,28.99c0.69,0.69,1.52,1.53,2.22,2.5
	h0.14c1.94,2.08,3.74,4.16,5.54,6.52c5.13,6.52,9.43,13.59,12.75,21.36c1.66,3.61,3.05,7.35,4.16,11.24
	c0.14,0.55,0.28,0.97,0.42,1.53c1.94,6.8,3.19,13.87,3.47,21.22C307.33,460.5,307.47,462.72,307.47,464.93z"/>
<path class="st15" d="M279.06,464.93c0,5.69-0.69,11.1-2.22,16.23c-1.39,5.55-3.47,10.82-6.1,15.81c-0.42,0.83-1.39,2.36-1.39,2.36
	H146.27c-0.14-0.14-0.28-0.42-0.28-0.55c-1.66-2.64-3.05-5.27-4.16-8.18c-2.77-6.38-4.44-13.32-4.99-20.53
	c-0.28-1.66-0.28-3.47-0.28-5.13c0-0.83,0-1.8,0.14-2.64c0.14-6.1,0.97-11.93,2.63-17.34c1.39-4.99,3.19-9.57,5.54-14.01
	c0,0,0.14-0.14,0.14-0.28c1.66-2.91,3.47-5.83,5.54-8.6c6.79-9.15,15.8-16.64,26.2-21.5c0.14,0,0.14,0,0.14,0
	c3.33-1.66,6.79-3.05,10.4-4.02c0,0,0,0,0.14,0c6.38-1.94,13.31-2.91,20.38-2.91c8.18,0,16.08,1.25,23.29,3.88
	c2.63,0.69,5.13,1.8,7.62,3.05c0,0,0,0,0.14,0c11.92,5.69,22.04,14.56,28.97,25.66c1.39,2.08,2.63,4.3,3.74,6.66
	c0.55,0.97,1.11,2.08,1.52,3.05c3.19,7.21,5.13,15.12,5.68,23.44c0.14,0.69,0.14,1.39,0.14,2.22
	C279.06,462.72,279.06,463.83,279.06,464.93z"/>
<g>
	<path class="st16" d="M333.67,69.35H167.34c-54.06,0-97.03,43-97.03,97.09v166.44c0,54.09,42.97,97.09,97.03,97.09h166.33
		c54.06,0,97.03-43,97.03-97.09V166.44C430.7,112.35,387.73,69.35,333.67,69.35z"/>
	<ellipse class="st17" cx="347.53" cy="138.7" rx="13.86" ry="13.87"/>
</g>
<g>
	<ellipse class="st16" cx="250.5" cy="249.67" rx="83.17" ry="83.22"/>
</g>
</svg>
